<svg xmlns="http://www.w3.org/2000/svg" width="1600" height="360" viewBox="0 0 1600 360" role="img" aria-label="NyxGuard Manager">
  <defs>
    <linearGradient id="bg" x1="0" y1="0" x2="1" y2="1">
      <stop offset="0" stop-color="#05060a"/>
      <stop offset="0.55" stop-color="#070a16"/>
      <stop offset="1" stop-color="#060514"/>
    </linearGradient>

    <radialGradient id="glowMagenta" cx="25%" cy="30%" r="60%">
      <stop offset="0" stop-color="#ff2bd6" stop-opacity="0.55"/>
      <stop offset="0.55" stop-color="#ff2bd6" stop-opacity="0.10"/>
      <stop offset="1" stop-color="#ff2bd6" stop-opacity="0"/>
    </radialGradient>

    <radialGradient id="glowBlue" cx="65%" cy="25%" r="70%">
      <stop offset="0" stop-color="#1a7bff" stop-opacity="0.55"/>
      <stop offset="0.55" stop-color="#1a7bff" stop-opacity="0.12"/>
      <stop offset="1" stop-color="#1a7bff" stop-opacity="0"/>
    </radialGradient>

    <linearGradient id="accent" x1="0" y1="0" x2="1" y2="0">
      <stop offset="0" stop-color="#1a7bff"/>
      <stop offset="0.55" stop-color="#8b5cff"/>
      <stop offset="1" stop-color="#ff2bd6"/>
    </linearGradient>

    <filter id="softGlow" x="-40%" y="-40%" width="180%" height="180%">
      <feGaussianBlur in="SourceGraphic" stdDeviation="6" result="blur"/>
      <feColorMatrix in="blur" type="matrix"
        values="1 0 0 0 0
                0 1 0 0 0
                0 0 1 0 0
                0 0 0 0.65 0" result="glow"/>
      <feMerge>
        <feMergeNode in="glow"/>
        <feMergeNode in="SourceGraphic"/>
      </feMerge>
    </filter>

    <style>
      .title {
        font-family: ui-sans-serif, system-ui, -apple-system, "Segoe UI", Arial, sans-serif;
        font-weight: 800;
        letter-spacing: -0.03em;
      }
      .sub {
        font-family: ui-sans-serif, system-ui, -apple-system, "Segoe UI", Arial, sans-serif;
        font-weight: 650;
        letter-spacing: 0.06em;
      }
    </style>
  </defs>

  <rect width="1600" height="360" fill="url(#bg)"/>
  <rect width="1600" height="360" fill="url(#glowMagenta)"/>
  <rect width="1600" height="360" fill="url(#glowBlue)"/>

  <!-- subtle grid -->
  <g opacity="0.18">
    <path d="M0 120H1600M0 240H1600" stroke="#ffffff" stroke-opacity="0.14"/>
    <path d="M240 0V360M520 0V360M800 0V360M1080 0V360M1360 0V360" stroke="#ffffff" stroke-opacity="0.08"/>
  </g>

  <!-- accent stroke -->
  <path d="M170 280 C 380 210, 520 230, 760 175 S 1180 130, 1428 96"
        fill="none" stroke="url(#accent)" stroke-width="4" stroke-linecap="round" opacity="0.85" filter="url(#softGlow)"/>
  <path d="M185 295 C 420 235, 560 250, 770 205 S 1210 160, 1445 122"
        fill="none" stroke="#ffffff" stroke-opacity="0.12" stroke-width="2" stroke-linecap="round"/>

  <!-- wordmark -->
  <g transform="translate(140, 120)">
    <text class="title" x="0" y="0" font-size="96" fill="#f7f9ff">NyxGuard</text>
    <text class="title" x="510" y="0" font-size="96" fill="url(#accent)" filter="url(#softGlow)">Manager</text>
    <text class="sub" x="2" y="52" font-size="18" fill="#c6ccda" opacity="0.95">
      Reverse proxy manager with an integrated security layer
    </text>
  </g>

  <!-- shield dot -->
  <g transform="translate(1380, 78)">
    <circle cx="0" cy="0" r="56" fill="#0a0d1a" stroke="url(#accent)" stroke-width="2" opacity="0.95"/>
    <path d="M0,-28 C18,-22 32,-14 32,3 C32,28 12,42 0,48 C-12,42 -32,28 -32,3 C-32,-14 -18,-22 0,-28Z"
          fill="url(#accent)" opacity="0.92" filter="url(#softGlow)"/>
    <path d="M0,-20 C12,-15 20,-9 20,3 C20,19 8,28 0,33 C-8,28 -20,19 -20,3 C-20,-9 -12,-15 0,-20Z"
          fill="#ffffff" fill-opacity="0.12"/>
  </g>
</svg>

