<svg xmlns="http://www.w3.org/2000/svg" width="1920" height="720" viewBox="0 0 1920 720" role="img" aria-label="NyxGuard Manager cover">
  <defs>
    <linearGradient id="bg" x1="0" y1="0" x2="1" y2="1">
      <stop offset="0" stop-color="#04050a"/>
      <stop offset="0.45" stop-color="#07102a"/>
      <stop offset="1" stop-color="#120428"/>
    </linearGradient>

    <radialGradient id="pulseBlue" cx="35%" cy="40%" r="60%">
      <stop offset="0" stop-color="#1a7bff" stop-opacity="0.55"/>
      <stop offset="0.55" stop-color="#1a7bff" stop-opacity="0.10"/>
      <stop offset="1" stop-color="#1a7bff" stop-opacity="0"/>
    </radialGradient>

    <radialGradient id="pulseMagenta" cx="72%" cy="55%" r="60%">
      <stop offset="0" stop-color="#ff2bd6" stop-opacity="0.50"/>
      <stop offset="0.55" stop-color="#ff2bd6" stop-opacity="0.10"/>
      <stop offset="1" stop-color="#ff2bd6" stop-opacity="0"/>
    </radialGradient>

    <linearGradient id="accent" x1="0" y1="0" x2="1" y2="0">
      <stop offset="0" stop-color="#1a7bff"/>
      <stop offset="0.5" stop-color="#7b5cff"/>
      <stop offset="1" stop-color="#ff2bd6"/>
    </linearGradient>

    <filter id="glow" x="-30%" y="-30%" width="160%" height="160%">
      <feGaussianBlur stdDeviation="10" result="b"/>
      <feColorMatrix in="b" type="matrix"
        values="1 0 0 0 0
                0 1 0 0 0
                0 0 1 0 0
                0 0 0 0.65 0" result="g"/>
      <feMerge>
        <feMergeNode in="g"/>
        <feMergeNode in="SourceGraphic"/>
      </feMerge>
    </filter>
  </defs>

  <rect width="1920" height="720" fill="url(#bg)"/>
  <rect width="1920" height="720" fill="url(#pulseBlue)"/>
  <rect width="1920" height="720" fill="url(#pulseMagenta)"/>

  <!-- angled slices -->
  <path d="M-50 140 L650 -80 L750 40 L50 260 Z" fill="#0b1023" opacity="0.8"/>
  <path d="M1220 820 L2120 520 L1980 380 L1080 680 Z" fill="#0b0a1f" opacity="0.8"/>

  <!-- neon rails -->
  <g opacity="0.95" filter="url(#glow)">
    <path d="M120 520 C 420 420, 690 520, 960 410 S 1520 240, 1800 280"
          fill="none" stroke="url(#accent)" stroke-width="8" stroke-linecap="round"/>
    <path d="M140 565 C 450 470, 720 560, 980 460 S 1540 300, 1810 340"
          fill="none" stroke="#ffffff" stroke-opacity="0.10" stroke-width="3" stroke-linecap="round"/>
  </g>

  <!-- micro dots -->
  <g fill="#ffffff" opacity="0.14">
    <circle cx="240" cy="150" r="2"/>
    <circle cx="280" cy="190" r="2"/>
    <circle cx="340" cy="160" r="2"/>
    <circle cx="1510" cy="160" r="2"/>
    <circle cx="1550" cy="205" r="2"/>
    <circle cx="1600" cy="175" r="2"/>
  </g>

  <!-- minimal badge -->
  <g transform="translate(150, 160)">
    <rect x="0" y="0" width="520" height="140" rx="18" fill="#070a16" opacity="0.78" stroke="#ffffff" stroke-opacity="0.10"/>
    <rect x="24" y="22" width="6" height="96" rx="3" fill="url(#accent)"/>
    <text x="52" y="62" font-family="ui-sans-serif, system-ui, -apple-system, 'Segoe UI', Arial, sans-serif"
          font-size="28" font-weight="700" fill="#f3f6ff">NyxGuard Manager</text>
    <text x="52" y="98" font-family="ui-sans-serif, system-ui, -apple-system, 'Segoe UI', Arial, sans-serif"
          font-size="16" font-weight="600" fill="#c6ccda" opacity="0.95">Black. Blue. Magenta.</text>
  </g>
</svg>

